<control>


default_path=//NDK/samples/kicks/kd14bop/snare_on/opn\


<global>
loop_mode=one_shot

<group> //Begin Group for entire instrument
key=12



<region>
sample=kd14wbop_opn_001.wav
lovel=0
hivel=1


<region>
sample=kd14wbop_opn_002.wav
lovel=2
hivel=3


<region>
sample=kd14wbop_opn_003.wav
lovel=4
hivel=6


<region>
sample=kd14wbop_opn_004.wav
lovel=7
hivel=8


<region>
sample=kd14wbop_opn_005.wav
lovel=9
hivel=11


<region>
sample=kd14wbop_opn_006.wav
lovel=12
hivel=13


<region>
sample=kd14wbop_opn_007.wav
lovel=14
hivel=16


<region>
sample=kd14wbop_opn_008.wav
lovel=17
hivel=18


<region>
sample=kd14wbop_opn_009.wav
lovel=19
hivel=20


<region>
sample=kd14wbop_opn_010.wav
lovel=21
hivel=23


<region>
sample=kd14wbop_opn_011.wav
lovel=24
hivel=25


<region>
sample=kd14wbop_opn_012.wav
lovel=26
hivel=28


<region>
sample=kd14wbop_opn_013.wav
lovel=29
hivel=30


<region>
sample=kd14wbop_opn_014.wav
lovel=31
hivel=33


<region>
sample=kd14wbop_opn_015.wav
lovel=34
hivel=35


<region>
sample=kd14wbop_opn_016.wav
lovel=36
hivel=38


<region>
sample=kd14wbop_opn_017.wav
lovel=39
hivel=40


<region>
sample=kd14wbop_opn_018.wav
lovel=41
hivel=42


<region>
sample=kd14wbop_opn_019.wav
lovel=43
hivel=45


<region>
sample=kd14wbop_opn_020.wav
lovel=46
hivel=47


<region>
sample=kd14wbop_opn_021.wav
lovel=48
hivel=50


<region>
sample=kd14wbop_opn_022.wav
lovel=51
hivel=52


<region>
sample=kd14wbop_opn_023.wav
lovel=53
hivel=55


<region>
sample=kd14wbop_opn_024.wav
lovel=56
hivel=57


<region>
sample=kd14wbop_opn_025.wav
lovel=58
hivel=60


<region>
sample=kd14wbop_opn_027.wav
lovel=61
hivel=62


<region>
sample=kd14wbop_opn_026.wav
lovel=63
hivel=64


<region>
sample=kd14wbop_opn_028.wav
lovel=65
hivel=67


<region>
sample=kd14wbop_opn_029.wav
lovel=68
hivel=69


<region>
sample=kd14wbop_opn_030.wav
lovel=70
hivel=72


<region>
sample=kd14wbop_opn_031.wav
lovel=73
hivel=74


<region>
sample=kd14wbop_opn_032.wav
lovel=75
hivel=77


<region>
sample=kd14wbop_opn_033.wav
lovel=78
hivel=79


<region>
sample=kd14wbop_opn_034.wav
lovel=80
hivel=82


<region>
sample=kd14wbop_opn_035.wav
lovel=83
hivel=84


<region>
sample=kd14wbop_opn_036.wav
lovel=85
hivel=86


<region>
sample=kd14wbop_opn_037.wav
lovel=87
hivel=89


<region>
sample=kd14wbop_opn_038.wav
lovel=90
hivel=91


<region>
sample=kd14wbop_opn_039x.wav
lovel=92
hivel=94


<region>
sample=kd14wbop_opn_040x.wav
lovel=95
hivel=96


<region>
sample=kd14wbop_opn_041x.wav
lovel=97
hivel=99


<region>
sample=kd14wbop_opn_042x.wav
lovel=100
hivel=101


<region>
sample=kd14wbop_opn_043x.wav
lovel=102
hivel=104


<region>
sample=kd14wbop_opn_044.wav
lovel=105
hivel=106


<region>
sample=kd14wbop_opn_045x.wav
lovel=107
hivel=108


<region>
sample=kd14wbop_opn_046.wav
lovel=109
hivel=111


<region>
sample=kd14wbop_opn_047.wav
lovel=112
hivel=113


<region>
sample=kd14wbop_opn_048x.wav
lovel=114
hivel=116


<region>
sample=kd14wbop_opn_049x.wav
lovel=117
hivel=118


<region>
sample=kd14wbop_opn_050x.wav
lovel=119
hivel=121


<region>
sample=kd14wbop_opn_051.wav
lovel=122
hivel=123


<region>
sample=kd14wbop_opn_052.wav
lovel=124
hivel=127


